<?xml version="1.0" encoding="UTF-8" standalone="no"?>
<!-- Created with Inkscape (http://www.inkscape.org/) -->

<svg
   xmlns:dc="http://purl.org/dc/elements/1.1/"
   xmlns:cc="http://creativecommons.org/ns#"
   xmlns:rdf="http://www.w3.org/1999/02/22-rdf-syntax-ns#"
   xmlns:svg="http://www.w3.org/2000/svg"
   xmlns="http://www.w3.org/2000/svg"
   xmlns:sodipodi="http://sodipodi.sourceforge.net/DTD/sodipodi-0.dtd"
   xmlns:inkscape="http://www.inkscape.org/namespaces/inkscape"
   width="210mm"
   height="297mm"
   viewBox="0 0 744.09448819 1052.3622047"
   id="svg2"
   version="1.1"
   inkscape:version="0.91 r13725"
   sodipodi:docname="blemgo3.svg">
  <defs
     id="defs4">
    <marker
       inkscape:stockid="TriangleOutL"
       orient="auto"
       refY="0.0"
       refX="0.0"
       id="TriangleOutL"
       style="overflow:visible"
       inkscape:isstock="true">
      <path
         id="path4696"
         d="M 5.77,0.0 L -2.88,5.0 L -2.88,-5.0 L 5.77,0.0 z "
         style="fill-rule:evenodd;stroke:#d0801c;stroke-width:1pt;stroke-opacity:1;fill:#d0801c;fill-opacity:1"
         transform="scale(0.8)" />
    </marker>
    <marker
       inkscape:stockid="Arrow2Mend"
       orient="auto"
       refY="0.0"
       refX="0.0"
       id="Arrow2Mend"
       style="overflow:visible;"
       inkscape:isstock="true">
      <path
         id="path4581"
         style="fill-rule:evenodd;stroke-width:0.625;stroke-linejoin:round;stroke:#000000;stroke-opacity:1;fill:#000000;fill-opacity:1"
         d="M 8.7185878,4.0337352 L -2.2072895,0.016013256 L 8.7185884,-4.0017078 C 6.9730900,-1.6296469 6.9831476,1.6157441 8.7185878,4.0337352 z "
         transform="scale(0.6) rotate(180) translate(0,0)" />
    </marker>
    <marker
       inkscape:stockid="Arrow2Lend"
       orient="auto"
       refY="0.0"
       refX="0.0"
       id="Arrow2Lend"
       style="overflow:visible;"
       inkscape:isstock="true">
      <path
         id="path4575"
         style="fill-rule:evenodd;stroke-width:0.625;stroke-linejoin:round;stroke:#000000;stroke-opacity:1;fill:#000000;fill-opacity:1"
         d="M 8.7185878,4.0337352 L -2.2072895,0.016013256 L 8.7185884,-4.0017078 C 6.9730900,-1.6296469 6.9831476,1.6157441 8.7185878,4.0337352 z "
         transform="scale(1.1) rotate(180) translate(1,0)" />
    </marker>
  </defs>
  <sodipodi:namedview
     id="base"
     pagecolor="#ffffff"
     bordercolor="#666666"
     borderopacity="1.0"
     inkscape:pageopacity="0.0"
     inkscape:pageshadow="2"
     inkscape:zoom="0.04375"
     inkscape:cx="1777.2183"
     inkscape:cy="-3129.9674"
     inkscape:document-units="px"
     inkscape:current-layer="layer1"
     showgrid="false"
     inkscape:window-width="1920"
     inkscape:window-height="1015"
     inkscape:window-x="0"
     inkscape:window-y="0"
     inkscape:window-maximized="1" />
  <metadata
     id="metadata7">
    <rdf:RDF>
      <cc:Work
         rdf:about="">
        <dc:format>image/svg+xml</dc:format>
        <dc:type
           rdf:resource="http://purl.org/dc/dcmitype/StillImage" />
        <dc:title></dc:title>
      </cc:Work>
    </rdf:RDF>
  </metadata>
  <g
     inkscape:label="Layer 1"
     inkscape:groupmode="layer"
     id="layer1">
    <text
       sodipodi:linespacing="0%"
       id="text4202"
       y="809.07782"
       x="-1899.9534"
       style="font-style:normal;font-weight:normal;font-size:168.75889587px;line-height:0%;font-family:Sans;letter-spacing:0px;word-spacing:0px;opacity:1;fill:#57575a;fill-opacity:1;stroke:#57575a;stroke-width:7.704;stroke-linecap:butt;stroke-linejoin:miter;stroke-miterlimit:4;stroke-dasharray:none;stroke-opacity:1"
       xml:space="preserve"><tspan
         style="font-style:normal;font-variant:normal;font-weight:normal;font-stretch:normal;font-size:350.49435425px;font-family:'Univers LT';-inkscape-font-specification:'Univers LT';fill:#57575a;fill-opacity:1;stroke:#57575a;stroke-width:7.704;stroke-miterlimit:4;stroke-dasharray:none;stroke-opacity:1"
         y="809.07782"
         x="-1899.9534"
         id="tspan4204"
         sodipodi:role="line">emgo</tspan></text>
    <text
       xml:space="preserve"
       style="font-style:normal;font-weight:normal;font-size:350.49435425px;line-height:0%;font-family:Sans;letter-spacing:0px;word-spacing:0px;opacity:1;fill:#57575a;fill-opacity:1;stroke:#57575a;stroke-width:7.704;stroke-linecap:butt;stroke-linejoin:miter;stroke-miterlimit:4;stroke-dasharray:none;stroke-opacity:1"
       x="815.33673"
       y="809.07782"
       id="text4136"
       sodipodi:linespacing="0%"><tspan
         sodipodi:role="line"
         id="tspan4138"
         x="815.33673"
         y="809.07782"
         style="font-style:normal;font-variant:normal;font-weight:normal;font-stretch:normal;font-family:'Univers LT';-inkscape-font-specification:'Univers LT';fill:#57575a;fill-opacity:1;stroke:#57575a;stroke-width:7.704;stroke-miterlimit:4;stroke-dasharray:none;stroke-opacity:1">ad Salzuflen</tspan></text>
    <g
       id="g4455"
       transform="matrix(75.719407,0,0,75.719407,-64150.431,-52005.283)">
      <g
         style="fill:#d0031c;fill-opacity:1"
         transform="matrix(0.02734409,0,0,0.02493433,897.34625,690.36592)"
         id="g4144">
        <path
           inkscape:connector-curvature="0"
           d="m -1514.6422,2.6156811 -100,3.4e-6 -100,-4.2e-6 50,-86.6025353 50,-86.602535 50,86.602532 z m -199.6435,3.4e-6 200,0 0,254.3793755 -200,0 z"
           style="opacity:1;fill:#d0031c;fill-opacity:1;stroke:none;stroke-width:300.79998779;stroke-linecap:square;stroke-linejoin:bevel;stroke-miterlimit:4;stroke-dasharray:none;stroke-opacity:1"
           transform="matrix(1.3279869,0,0,1.2804273,562.38017,-0.7335093)"
           id="path4142" />
      </g>
      <path
         d="m 853.53277,697.54359 q -0.73785,0 -0.73785,-0.24989 0,-0.31847 0.0385,-1.23467 0.0384,-0.9162 0.0384,-1.23467 0,-0.76921 -0.0538,-2.03818 -0.0538,-1.26897 -0.0538,-2.0382 l 0,-0.0588 q 0,-0.14698 0.0154,-0.24987 0.0153,-0.10289 0.0691,-0.23028 0.0461,-0.13229 0.17678,-0.20578 0.13066,-0.0735 0.33049,-0.0735 0.73786,0 1.27588,0.21067 0.538,0.20578 0.82238,0.57815 0.28438,0.37235 0.28438,0.8574 0,0.29888 -0.17678,0.63204 -0.16908,0.32826 -0.46115,0.60754 -0.29207,0.27927 -0.63793,0.43605 0.91462,0.39195 1.34505,1.0142 0.43808,0.62223 0.43808,1.36206 0,0.36255 -0.36892,0.8672 -0.23057,0.30377 -0.52265,0.52425 -0.29206,0.22048 -0.73016,0.36746 -0.47654,0.15678 -1.02992,0.15678 l -0.0615,0 z m 0.14604,-4.43405 q 0.19983,-0.0294 0.3766,-0.14209 0.18447,-0.11268 0.32281,-0.29397 0.23059,-0.28907 0.4381,-0.68593 0.0999,-0.19598 0.15373,-0.27437 l 0,-0.35765 q 0,-0.19599 -0.16141,-0.39686 -0.1614,-0.20089 -0.42274,-0.32828 -0.26131,-0.13228 -0.54569,-0.13228 -0.22289,0 -0.22289,0.31357 0,0.48994 0.0308,1.17587 0.0308,0.68593 0.0308,1.12199 z m 0.0691,3.9098 q 0.51495,-0.0489 0.89156,-0.24008 0.38431,-0.19108 0.58413,-0.48015 0.20752,-0.29396 0.20752,-0.64673 0,-0.46055 -0.12298,-0.84271 -0.11528,-0.38707 -0.29975,-0.58794 -0.17678,-0.18618 -0.35355,-0.31848 -0.17677,-0.13227 -0.29975,-0.17637 l -0.12298,-0.0344 -0.56106,0 q 0.0768,1.32286 0.0768,3.32675 z"
         style="font-style:normal;font-variant:normal;font-weight:bold;font-stretch:normal;font-size:medium;line-height:0%;font-family:'Amatic SC';-inkscape-font-specification:'Amatic SC Bold';letter-spacing:0px;word-spacing:0px;fill:#ffffff;fill-opacity:1;stroke:none;stroke-width:1px;stroke-linecap:butt;stroke-linejoin:miter;stroke-opacity:1"
         id="path4206"
         inkscape:connector-curvature="0" />
    </g>
    <g
       id="g4460"
       transform="matrix(75.719407,0,0,75.719407,-66865.72,-53593.292)">
      <g
         style="fill:#d0031c;fill-opacity:1"
         transform="matrix(0.02734409,0,0,0.02493433,897.34624,711.33821)"
         id="g7668">
        <path
           inkscape:connector-curvature="0"
           d="m -1514.6422,2.6156811 -100,3.4e-6 -100,-4.2e-6 50,-86.6025353 50,-86.602535 50,86.602532 z m -199.6435,3.4e-6 200,0 0,254.3793755 -200,0 z"
           style="opacity:1;fill:#d0031c;fill-opacity:1;stroke:none;stroke-width:300.79998779;stroke-linecap:square;stroke-linejoin:bevel;stroke-miterlimit:4;stroke-dasharray:none;stroke-opacity:1"
           transform="matrix(1.3279869,0,0,1.2804273,562.38017,-0.7335093)"
           id="path7670" />
      </g>
      <path
         inkscape:connector-curvature="0"
         id="path7672"
         style="font-style:normal;font-variant:normal;font-weight:bold;font-stretch:normal;font-size:medium;line-height:0%;font-family:'Amatic SC';-inkscape-font-specification:'Amatic SC Bold';letter-spacing:0px;word-spacing:0px;fill:#ffffff;fill-opacity:1;stroke:none;stroke-width:1px;stroke-linecap:butt;stroke-linejoin:miter;stroke-opacity:1"
         d="m 853.59592,718.47461 c -0.13834,0 -0.26133,-0.0327 -0.36893,-0.098 -0.1076,-0.0622 -0.1614,-0.13556 -0.1614,-0.22048 0,-0.0588 0.0179,-0.13391 0.0538,-0.22538 0.0308,-0.0947 0.046,-0.16658 0.046,-0.21557 0,-0.72187 -0.0512,-1.86344 -0.15371,-3.42475 -0.10761,-1.51883 -0.1614,-2.65879 -0.1614,-3.41985 0,-0.0588 0.0359,-0.10778 0.1076,-0.14697 0.0768,-0.0391 0.16909,-0.0588 0.27669,-0.0588 0.12811,0 0.23827,0.0294 0.33049,0.0882 0.0974,0.0555 0.14604,0.12248 0.14604,0.20089 0,0.36256 0.0282,0.9652 0.0846,1.8079 0.0513,0.76432 0.0768,1.36533 0.0768,1.80301 l 0.0154,0.1225 c 0.005,0.036 0.008,0.0767 0.008,0.12247 0,0.0392 -0.002,0.0637 -0.008,0.0735 l 0,0.044 c 0.0409,0.6206 0.0615,1.4927 0.0615,2.61632 l 0,0.25477 2.20242,0 c 0.22545,0.098 0.33817,0.19762 0.33817,0.29887 0,0.0751 -0.0384,0.1421 -0.11529,0.20089 -0.0768,0.0555 -0.17165,0.0833 -0.28437,0.0833 -0.0513,0 -0.10504,-0.007 -0.1614,-0.0196 l -0.0768,-0.0147 c -0.0768,0.013 -0.17677,0.0196 -0.29975,0.0196 l -1.25704,-0.01 c -0.0768,-0.003 -0.1614,-0.005 -0.25365,-0.005 -0.1076,0.0817 -0.2562,0.12249 -0.44578,0.12249 z"
         sodipodi:nodetypes="ccscscscscscccsccsccscsccccccc" />
    </g>
  </g>
</svg>
