<?xml version="1.0" encoding="UTF-8" standalone="no"?>
<!-- Created with Inkscape (http://www.inkscape.org/) -->

<svg
   xmlns:dc="http://purl.org/dc/elements/1.1/"
   xmlns:cc="http://creativecommons.org/ns#"
   xmlns:rdf="http://www.w3.org/1999/02/22-rdf-syntax-ns#"
   xmlns:svg="http://www.w3.org/2000/svg"
   xmlns="http://www.w3.org/2000/svg"
   xmlns:sodipodi="http://sodipodi.sourceforge.net/DTD/sodipodi-0.dtd"
   xmlns:inkscape="http://www.inkscape.org/namespaces/inkscape"
   id="svg2"
   version="1.1"
   inkscape:version="0.91 r13725"
   width="1342.5"
   height="598.5"
   viewBox="0 0 1342.5 598.5"
   sodipodi:docname="blemgo2.svg">
  <metadata
     id="metadata8">
    <rdf:RDF>
      <cc:Work
         rdf:about="">
        <dc:format>image/svg+xml</dc:format>
        <dc:type
           rdf:resource="http://purl.org/dc/dcmitype/StillImage" />
        <dc:title></dc:title>
      </cc:Work>
    </rdf:RDF>
  </metadata>
  <defs
     id="defs6">
    <marker
       inkscape:isstock="true"
       style="overflow:visible"
       id="TriangleOutL"
       refX="0.0"
       refY="0.0"
       orient="auto"
       inkscape:stockid="TriangleOutL">
      <path
         transform="scale(0.8)"
         style="fill-rule:evenodd;stroke:#d0801c;stroke-width:1pt;stroke-opacity:1;fill:#d0801c;fill-opacity:1"
         d="M 5.77,0.0 L -2.88,5.0 L -2.88,-5.0 L 5.77,0.0 z "
         id="path4696" />
    </marker>
    <marker
       inkscape:isstock="true"
       style="overflow:visible;"
       id="Arrow2Mend"
       refX="0.0"
       refY="0.0"
       orient="auto"
       inkscape:stockid="Arrow2Mend">
      <path
         transform="scale(0.6) rotate(180) translate(0,0)"
         d="M 8.7185878,4.0337352 L -2.2072895,0.016013256 L 8.7185884,-4.0017078 C 6.9730900,-1.6296469 6.9831476,1.6157441 8.7185878,4.0337352 z "
         style="fill-rule:evenodd;stroke-width:0.625;stroke-linejoin:round;stroke:#000000;stroke-opacity:1;fill:#000000;fill-opacity:1"
         id="path4581" />
    </marker>
    <marker
       inkscape:isstock="true"
       style="overflow:visible;"
       id="Arrow2Lend"
       refX="0.0"
       refY="0.0"
       orient="auto"
       inkscape:stockid="Arrow2Lend">
      <path
         transform="scale(1.1) rotate(180) translate(1,0)"
         d="M 8.7185878,4.0337352 L -2.2072895,0.016013256 L 8.7185884,-4.0017078 C 6.9730900,-1.6296469 6.9831476,1.6157441 8.7185878,4.0337352 z "
         style="fill-rule:evenodd;stroke-width:0.625;stroke-linejoin:round;stroke:#000000;stroke-opacity:1;fill:#000000;fill-opacity:1"
         id="path4575" />
    </marker>
  </defs>
  <sodipodi:namedview
     pagecolor="#ffffff"
     bordercolor="#666666"
     borderopacity="1"
     objecttolerance="10"
     gridtolerance="10"
     guidetolerance="10"
     inkscape:pageopacity="0"
     inkscape:pageshadow="2"
     inkscape:window-width="1920"
     inkscape:window-height="1015"
     id="namedview4"
     showgrid="false"
     inkscape:zoom="2.8284271"
     inkscape:cx="818.99837"
     inkscape:cy="-60.818178"
     inkscape:window-x="0"
     inkscape:window-y="0"
     inkscape:window-maximized="1"
     inkscape:current-layer="svg2" />
  <g
     id="g4552"
     transform="translate(-43.487067,-38.183766)"
     inkscape:export-xdpi="1977.8311"
     inkscape:export-ydpi="1977.8311">
    <text
       transform="scale(1.0254977,0.97513626)"
       sodipodi:linespacing="0%"
       id="text4138"
       y="735.93402"
       x="881.80975"
       style="font-style:normal;font-weight:normal;font-size:6.04850483px;line-height:0%;font-family:Sans;letter-spacing:0px;word-spacing:0px;fill:#57575a;fill-opacity:1;stroke:none;stroke-width:1px;stroke-linecap:butt;stroke-linejoin:miter;stroke-opacity:1"
       xml:space="preserve"><tspan
         style="font-style:normal;font-variant:normal;font-weight:normal;font-stretch:normal;font-family:Arial;-inkscape-font-specification:Arial;fill:#57575a;fill-opacity:1"
         y="735.93402"
         x="881.80975"
         id="tspan4140"
         sodipodi:role="line">ad Salzuflen</tspan></text>
    <g
       transform="translate(46.135358,20.580205)"
       id="g4455">
      <g
         id="g4144"
         transform="matrix(0.02734409,0,0,0.02493433,897.34625,690.36592)"
         style="fill:#d0031c;fill-opacity:1">
        <path
           id="path4142"
           transform="matrix(1.3279869,0,0,1.2804273,562.38017,-0.7335093)"
           style="opacity:1;fill:#d0031c;fill-opacity:1;stroke:none;stroke-width:300.79998779;stroke-linecap:square;stroke-linejoin:bevel;stroke-miterlimit:4;stroke-dasharray:none;stroke-opacity:1"
           d="m -1514.6422,2.6156811 -100,3.4e-6 -100,-4.2e-6 50,-86.6025353 50,-86.602535 50,86.602532 z m -199.6435,3.4e-6 200,0 0,254.3793755 -200,0 z"
           inkscape:connector-curvature="0" />
      </g>
      <path
         inkscape:connector-curvature="0"
         id="path4206"
         style="font-style:normal;font-variant:normal;font-weight:bold;font-stretch:normal;font-size:medium;line-height:0%;font-family:'Amatic SC';-inkscape-font-specification:'Amatic SC Bold';letter-spacing:0px;word-spacing:0px;fill:#ffffff;fill-opacity:1;stroke:none;stroke-width:1px;stroke-linecap:butt;stroke-linejoin:miter;stroke-opacity:1"
         d="m 853.53277,697.54359 q -0.73785,0 -0.73785,-0.24989 0,-0.31847 0.0385,-1.23467 0.0384,-0.9162 0.0384,-1.23467 0,-0.76921 -0.0538,-2.03818 -0.0538,-1.26897 -0.0538,-2.0382 l 0,-0.0588 q 0,-0.14698 0.0154,-0.24987 0.0153,-0.10289 0.0691,-0.23028 0.0461,-0.13229 0.17678,-0.20578 0.13066,-0.0735 0.33049,-0.0735 0.73786,0 1.27588,0.21067 0.538,0.20578 0.82238,0.57815 0.28438,0.37235 0.28438,0.8574 0,0.29888 -0.17678,0.63204 -0.16908,0.32826 -0.46115,0.60754 -0.29207,0.27927 -0.63793,0.43605 0.91462,0.39195 1.34505,1.0142 0.43808,0.62223 0.43808,1.36206 0,0.36255 -0.36892,0.8672 -0.23057,0.30377 -0.52265,0.52425 -0.29206,0.22048 -0.73016,0.36746 -0.47654,0.15678 -1.02992,0.15678 l -0.0615,0 z m 0.14604,-4.43405 q 0.19983,-0.0294 0.3766,-0.14209 0.18447,-0.11268 0.32281,-0.29397 0.23059,-0.28907 0.4381,-0.68593 0.0999,-0.19598 0.15373,-0.27437 l 0,-0.35765 q 0,-0.19599 -0.16141,-0.39686 -0.1614,-0.20089 -0.42274,-0.32828 -0.26131,-0.13228 -0.54569,-0.13228 -0.22289,0 -0.22289,0.31357 0,0.48994 0.0308,1.17587 0.0308,0.68593 0.0308,1.12199 z m 0.0691,3.9098 q 0.51495,-0.0489 0.89156,-0.24008 0.38431,-0.19108 0.58413,-0.48015 0.20752,-0.29396 0.20752,-0.64673 0,-0.46055 -0.12298,-0.84271 -0.11528,-0.38707 -0.29975,-0.58794 -0.17678,-0.18618 -0.35355,-0.31848 -0.17677,-0.13227 -0.29975,-0.17637 l -0.12298,-0.0344 -0.56106,0 q 0.0768,1.32286 0.0768,3.32675 z" />
    </g>
  </g>
  <g
     id="g4544"
     transform="translate(-42.867991,-39.208528)"
     inkscape:export-xdpi="1977.8311"
     inkscape:export-ydpi="1977.8311">
    <path
       sodipodi:type="inkscape:offset"
       inkscape:radius="-0.021337714"
       inkscape:original="M 883.49609 711.95312 C 883.06293 711.95312 882.71116 712.09727 882.43945 712.38867 C 882.16774 712.68007 882.03125 713.08952 882.03125 713.61719 C 882.03125 714.12714 882.16582 714.52507 882.43359 714.80859 C 882.70334 715.09015 883.06663 715.23047 883.52539 715.23047 C 883.88964 715.23047 884.18953 715.14205 884.42383 714.96484 C 884.65813 714.78764 884.81766 714.53773 884.9043 714.2168 L 884.35547 714.15039 C 884.27474 714.37485 884.16517 714.53824 884.02734 714.64062 C 883.88952 714.74301 883.72422 714.79297 883.5293 714.79297 C 883.26743 714.79297 883.04828 714.70264 882.87305 714.51953 C 882.69781 714.33642 882.59977 714.07112 882.58008 713.72656 L 884.91992 713.72656 C 884.92189 713.66356 884.92188 713.61744 884.92188 713.58594 C 884.92188 713.06811 884.78924 712.66635 884.52344 712.38086 C 884.25763 712.09537 883.91547 711.95312 883.49609 711.95312 z M 887.00195 711.95312 C 886.79325 711.95312 886.60678 711.99924 886.44336 712.09375 C 886.27994 712.18629 886.14923 712.30932 886.05078 712.46289 L 886.05078 712.02344 L 885.57617 712.02344 L 885.57617 715.16016 L 886.10742 715.16016 L 886.10742 713.5332 C 886.10742 713.24771 886.13626 713.02856 886.19336 712.87695 C 886.25046 712.72535 886.34079 712.61001 886.4668 712.53125 C 886.59478 712.45249 886.73318 712.41406 886.88281 712.41406 C 887.0797 712.41406 887.22196 712.47171 887.30859 712.58984 C 887.39523 712.70798 887.43945 712.88482 887.43945 713.12109 L 887.43945 715.16016 L 887.9707 715.16016 L 887.9707 713.33789 C 887.9707 713.01499 888.04375 712.78047 888.18945 712.63477 C 888.33515 712.4871 888.51776 712.41406 888.73828 712.41406 C 888.86035 712.41406 888.96607 712.44095 889.05664 712.49805 C 889.14721 712.55515 889.21067 712.63205 889.24414 712.72656 C 889.27958 712.8191 889.29688 712.97095 889.29688 713.18359 L 889.29688 715.16016 L 889.82617 715.16016 L 889.82617 713.00586 C 889.82617 712.64752 889.74158 712.38419 889.57422 712.21289 C 889.40686 712.03963 889.16851 711.95312 888.85742 711.95312 C 888.4597 711.95312 888.13676 712.13574 887.88867 712.50195 C 887.82764 712.32869 887.7219 712.19413 887.57227 712.09766 C 887.4246 712.00118 887.23429 711.95312 887.00195 711.95312 z M 891.77539 711.95312 C 891.49777 711.95312 891.25556 712.02038 891.04883 712.1582 C 890.84406 712.29603 890.68642 712.4921 890.57812 712.74609 C 890.46983 712.99811 890.41602 713.27494 890.41602 713.57422 C 890.41602 714.00935 890.53326 714.38227 890.76953 714.69336 C 891.0058 715.00445 891.34029 715.16016 891.77148 715.16016 C 892.11801 715.16016 892.40829 715.02368 892.64062 714.75 C 892.64259 715.09653 892.62913 715.32335 892.60156 715.43164 C 892.55431 715.60884 892.46396 715.74726 892.33008 715.8457 C 892.19619 715.94415 892.00588 715.99219 891.75977 715.99219 C 891.53137 715.99219 891.35067 715.94415 891.21875 715.8457 C 891.1203 715.77285 891.06072 715.65558 891.03906 715.49609 L 890.52148 715.41992 C 890.51361 715.75858 890.62511 716.01038 890.85547 716.17773 C 891.08583 716.34706 891.38763 716.43359 891.76172 716.43359 C 892.07675 716.43359 892.34203 716.37399 892.55664 716.25586 C 892.77322 716.13772 892.93085 715.97625 893.0293 715.77148 C 893.12971 715.56869 893.17969 715.22267 893.17969 714.73438 L 893.17969 712.02344 L 892.68945 712.02344 L 892.68945 712.40039 C 892.44925 712.10112 892.14555 711.95312 891.77539 711.95312 z M 895.25977 711.95312 C 894.87189 711.95312 894.54318 712.06845 894.27344 712.30078 C 893.95054 712.58037 893.78906 713.01097 893.78906 713.5918 C 893.78906 714.12143 893.92362 714.52704 894.19336 714.80859 C 894.46507 715.09015 894.8207 715.23047 895.25977 715.23047 C 895.53344 715.23047 895.78526 715.16704 896.01562 715.03906 C 896.24796 714.91108 896.42482 714.73232 896.54492 714.50195 C 896.66699 714.26962 896.72656 713.9505 896.72656 713.54688 C 896.72656 713.04874 896.59009 712.65851 896.31641 712.37695 C 896.04273 712.09343 895.69096 711.95312 895.25977 711.95312 z M 883.50195 712.38867 C 883.77169 712.38867 883.99083 712.4925 884.16016 712.69727 C 884.27042 712.82918 884.3377 713.02718 884.36133 713.29102 L 882.60938 713.29102 C 882.6271 713.01734 882.71938 712.79819 882.88477 712.63477 C 883.05212 712.47135 883.25781 712.38867 883.50195 712.38867 z M 891.8125 712.39258 C 892.05271 712.39258 892.25841 712.49062 892.42773 712.68555 C 892.59903 712.88047 892.68359 713.1688 892.68359 713.55273 C 892.68359 713.95439 892.60094 714.25044 892.43555 714.43945 C 892.27016 714.6265 892.06641 714.71875 891.82227 714.71875 C 891.57615 714.71875 891.37045 714.62456 891.20703 714.43555 C 891.04361 714.24653 890.96289 713.94666 890.96289 713.53516 C 890.96289 713.15712 891.04555 712.87263 891.21094 712.68164 C 891.37633 712.48869 891.57623 712.39258 891.8125 712.39258 z M 895.25977 712.39258 C 895.52163 712.39258 895.74078 712.49253 895.91602 712.69336 C 896.09322 712.89222 896.18164 713.18634 896.18164 713.57422 C 896.18164 713.98572 896.0932 714.29136 895.91797 714.49219 C 895.74274 714.69302 895.5236 714.79297 895.25977 714.79297 C 894.99396 714.79297 894.77289 714.69495 894.59766 714.49609 C 894.42242 714.29526 894.33594 713.99346 894.33594 713.5918 C 894.33594 713.19014 894.42242 712.89027 894.59766 712.69141 C 894.77289 712.49255 894.99396 712.39258 895.25977 712.39258 z "
       style="font-style:normal;font-weight:normal;font-size:6.04850483px;line-height:0%;font-family:Sans;letter-spacing:0px;word-spacing:0px;fill:#57575a;fill-opacity:1;stroke:none;stroke-width:1px;stroke-linecap:butt;stroke-linejoin:miter;stroke-opacity:1"
       id="path4562"
       d="m 883.49609,711.97461 c -0.42842,0 -0.77317,0.14049 -1.04101,0.42773 -0.26734,0.28672 -0.40235,0.69086 -0.40235,1.21485 0,0.50619 0.13311,0.89691 0.39649,1.17578 0.26558,0.27721 0.62176,0.41601 1.07617,0.41601 0.3608,0 0.65473,-0.0877 0.88477,-0.26171 0.22432,-0.16966 0.37781,-0.40756 0.46484,-0.71289 l -0.50586,-0.0606 c -0.0811,0.21879 -0.18937,0.38131 -0.32812,0.48437 -0.14171,0.10528 -0.31316,0.15625 -0.51172,0.15625 -0.26678,0 -0.49293,-0.0923 -0.67188,-0.27929 -0.17961,-0.18768 -0.27894,-0.45868 -0.29883,-0.80664 a 0.02133985,0.02133985 0 0 1 0,-0.002 0.02133985,0.02133985 0 0 1 0,-0.006 0.02133985,0.02133985 0 0 1 0.002,-0.002 0.02133985,0.02133985 0 0 1 0,-0.002 0.02133985,0.02133985 0 0 1 0.002,-0.002 0.02133985,0.02133985 0 0 1 0,-0.002 0.02133985,0.02133985 0 0 1 0.002,0 0.02133985,0.02133985 0 0 1 0.002,-0.002 0.02133985,0.02133985 0 0 1 0.002,-0.002 0.02133985,0.02133985 0 0 1 0.002,-0.002 0.02133985,0.02133985 0 0 1 0.002,0 0.02133985,0.02133985 0 0 1 0.006,-0.002 0.02133985,0.02133985 0 0 1 0.002,0 l 2.31836,0 c 0.001,-0.0488 0.002,-0.0924 0.002,-0.11914 0,-0.51419 -0.13117,-0.91063 -0.39258,-1.19141 -0.26199,-0.28139 -0.59716,-0.41992 -1.01172,-0.41992 z m 3.50586,0 c -0.20555,0 -0.38889,0.0442 -0.54883,0.13672 a 0.02133985,0.02133985 0 0 1 0,0.002 c -0.1606,0.091 -0.28815,0.21062 -0.38476,0.36133 a 0.02133985,0.02133985 0 0 1 0,0.002 0.02133985,0.02133985 0 0 1 -0.002,0.002 0.02133985,0.02133985 0 0 1 -0.002,0 0.02133985,0.02133985 0 0 1 -0.002,0.002 0.02133985,0.02133985 0 0 1 -0.002,0.002 0.02133985,0.02133985 0 0 1 -0.002,0 0.02133985,0.02133985 0 0 1 -0.002,0 0.02133985,0.02133985 0 0 1 -0.002,0.002 0.02133985,0.02133985 0 0 1 -0.002,0 0.02133985,0.02133985 0 0 1 -0.002,0 0.02133985,0.02133985 0 0 1 -0.002,0 0.02133985,0.02133985 0 0 1 -0.002,0 0.02133985,0.02133985 0 0 1 -0.002,-0.002 0.02133985,0.02133985 0 0 1 -0.002,0 0.02133985,0.02133985 0 0 1 -0.002,0 0.02133985,0.02133985 0 0 1 -0.002,-0.002 0.02133985,0.02133985 0 0 1 -0.002,-0.002 0.02133985,0.02133985 0 0 1 -0.002,0 0.02133985,0.02133985 0 0 1 -0.002,-0.002 0.02133985,0.02133985 0 0 1 0,-0.002 0.02133985,0.02133985 0 0 1 -0.002,-0.002 0.02133985,0.02133985 0 0 1 0,-0.002 0.02133985,0.02133985 0 0 1 -0.002,-0.002 0.02133985,0.02133985 0 0 1 0,-0.002 0.02133985,0.02133985 0 0 1 0,-0.002 0.02133985,0.02133985 0 0 1 0,-0.002 l 0,-0.41797 -0.43164,0 0,3.09375 0.48828,0 0,-1.60547 c 0,-0.28692 0.0292,-0.50832 0.0879,-0.66406 0.0585,-0.15521 0.15118,-0.27417 0.28125,-0.35547 0.13119,-0.0807 0.27445,-0.12109 0.42773,-0.12109 0.20106,0 0.3521,0.0611 0.44336,0.18554 0.0906,0.12354 0.13477,0.30404 0.13477,0.54297 l 0,2.01758 0.48828,0 0,-1.80078 c 0,-0.32612 0.0733,-0.56748 0.22461,-0.71875 0.14949,-0.15151 0.33922,-0.22656 0.56445,-0.22656 0.1252,0 0.23573,0.0284 0.33008,0.0879 0.0941,0.0593 0.16022,0.1392 0.19531,0.23828 0.0374,0.0977 0.0547,0.25105 0.0547,0.46484 l 0,1.95508 0.48633,0 0,-2.13281 c 0,-0.35498 -0.0839,-0.61129 -0.2461,-0.77734 -0.16279,-0.16854 -0.39403,-0.25391 -0.70117,-0.25391 -0.39119,0 -0.70606,0.17724 -0.95117,0.53906 a 0.02133985,0.02133985 0 0 1 -0.002,0.002 0.02133985,0.02133985 0 0 1 0,0.002 0.02133985,0.02133985 0 0 1 -0.002,0.002 0.02133985,0.02133985 0 0 1 -0.002,0 0.02133985,0.02133985 0 0 1 -0.002,0.002 0.02133985,0.02133985 0 0 1 -0.002,0 0.02133985,0.02133985 0 0 1 -0.002,0.002 0.02133985,0.02133985 0 0 1 -0.002,0 0.02133985,0.02133985 0 0 1 -0.002,0 0.02133985,0.02133985 0 0 1 -0.002,0 0.02133985,0.02133985 0 0 1 -0.002,0 0.02133985,0.02133985 0 0 1 -0.002,0 0.02133985,0.02133985 0 0 1 -0.002,-0.002 0.02133985,0.02133985 0 0 1 -0.004,-0.002 0.02133985,0.02133985 0 0 1 -0.002,0 0.02133985,0.02133985 0 0 1 -0.002,-0.002 0.02133985,0.02133985 0 0 1 -0.002,-0.002 0.02133985,0.02133985 0 0 1 -0.002,0 0.02133985,0.02133985 0 0 1 0,-0.002 0.02133985,0.02133985 0 0 1 -0.002,-0.002 0.02133985,0.02133985 0 0 1 0,-0.002 c -0.0596,-0.16925 -0.16271,-0.30048 -0.30859,-0.39454 -0.14336,-0.0937 -0.3292,-0.14062 -0.5586,-0.14062 z m 4.77344,0 c -0.27417,0 -0.51185,0.0658 -0.71484,0.20117 -0.20121,0.13543 -0.35597,0.32736 -0.46289,0.57813 -0.10707,0.24916 -0.16016,0.52359 -0.16016,0.82031 0,0.4313 0.11625,0.79821 0.34961,1.10547 0.23248,0.30609 0.55832,0.45898 0.98437,0.45898 0.34093,0 0.6246,-0.13268 0.85352,-0.40234 a 0.02133985,0.02133985 0 0 1 0,-0.002 0.02133985,0.02133985 0 0 1 0.002,-0.002 0.02133985,0.02133985 0 0 1 0.002,0 0.02133985,0.02133985 0 0 1 0.002,-0.002 0.02133985,0.02133985 0 0 1 0.002,0 0.02133985,0.02133985 0 0 1 0.002,-0.002 0.02133985,0.02133985 0 0 1 0.002,0 0.02133985,0.02133985 0 0 1 0.002,0 0.02133985,0.02133985 0 0 1 0.002,0 0.02133985,0.02133985 0 0 1 0.002,0 0.02133985,0.02133985 0 0 1 0.006,0.002 0.02133985,0.02133985 0 0 1 0.002,0 0.02133985,0.02133985 0 0 1 0.002,0.002 0.02133985,0.02133985 0 0 1 0.002,0.002 0.02133985,0.02133985 0 0 1 0.002,0.002 0.02133985,0.02133985 0 0 1 0.002,0.002 0.02133985,0.02133985 0 0 1 0.002,0.002 0.02133985,0.02133985 0 0 1 0,0.002 0.02133985,0.02133985 0 0 1 0.002,0.002 0.02133985,0.02133985 0 0 1 0,0.006 c 0.002,0.34714 -0.0101,0.57392 -0.0391,0.6875 -0.0483,0.18107 -0.14337,0.3244 -0.28125,0.42578 -0.139,0.10221 -0.33315,0.15039 -0.58203,0.15039 -0.23065,0 -0.41613,-0.049 -0.55274,-0.15039 l -0.002,0 c -0.0993,-0.074 -0.15943,-0.19411 -0.1836,-0.34766 l -0.47851,-0.0703 c -0.002,0.32037 0.10533,0.55583 0.32422,0.71485 0.22599,0.16611 0.52373,0.25195 0.89453,0.25195 0.31234,0 0.5744,-0.0598 0.78516,-0.17578 0.21322,-0.11631 0.36639,-0.27391 0.46289,-0.47461 0.0974,-0.19666 0.14843,-0.54051 0.14843,-1.02734 l 0,-2.68946 -0.44726,0 0,0.35547 a 0.02133985,0.02133985 0 0 1 0,0.002 0.02133985,0.02133985 0 0 1 0,0.002 0.02133985,0.02133985 0 0 1 -0.002,0.002 0.02133985,0.02133985 0 0 1 0,0.002 0.02133985,0.02133985 0 0 1 0,0.002 0.02133985,0.02133985 0 0 1 -0.002,0.002 0.02133985,0.02133985 0 0 1 -0.002,0.002 0.02133985,0.02133985 0 0 1 0,0.002 0.02133985,0.02133985 0 0 1 -0.002,0.002 0.02133985,0.02133985 0 0 1 -0.002,0 0.02133985,0.02133985 0 0 1 -0.002,0.002 0.02133985,0.02133985 0 0 1 -0.002,0 0.02133985,0.02133985 0 0 1 -0.002,0.002 0.02133985,0.02133985 0 0 1 -0.002,0 0.02133985,0.02133985 0 0 1 -0.002,0 0.02133985,0.02133985 0 0 1 -0.002,0 0.02133985,0.02133985 0 0 1 -0.002,0 0.02133985,0.02133985 0 0 1 -0.002,0 0.02133985,0.02133985 0 0 1 -0.006,-0.002 0.02133985,0.02133985 0 0 1 -0.002,-0.002 0.02133985,0.02133985 0 0 1 -0.002,-0.002 0.02133985,0.02133985 0 0 1 -0.002,-0.002 0.02133985,0.02133985 0 0 1 -0.002,0 c -0.23686,-0.2951 -0.53202,-0.43945 -0.89649,-0.43945 z m 3.48438,0 c -0.38365,0 -0.70677,0.11278 -0.97266,0.3418 -0.31737,0.27479 -0.47656,0.69851 -0.47656,1.27539 0,0.52601 0.13332,0.92445 0.39843,1.20117 0.26771,0.27741 0.61626,0.41601 1.05079,0.41601 0.27037,0 0.51888,-0.0632 0.74609,-0.18945 0.22899,-0.12614 0.40131,-0.30057 0.51953,-0.52734 0.11966,-0.22774 0.17969,-0.54379 0.17969,-0.94531 0,-0.49425 -0.13502,-0.87727 -0.4043,-1.1543 -0.26978,-0.27948 -0.61445,-0.41797 -1.04101,-0.41797 z m -11.75782,0.39258 c 0.27522,0 0.501,0.1074 0.67383,0.3164 0.11426,0.1367 0.18317,0.33899 0.20703,0.60547 a 0.02133985,0.02133985 0 0 1 0,0.002 0.02133985,0.02133985 0 0 1 0,0.002 0.02133985,0.02133985 0 0 1 0,0.002 0.02133985,0.02133985 0 0 1 -0.002,0.002 0.02133985,0.02133985 0 0 1 0,0.002 0.02133985,0.02133985 0 0 1 0,0.002 0.02133985,0.02133985 0 0 1 -0.002,0.002 0.02133985,0.02133985 0 0 1 -0.002,0.002 0.02133985,0.02133985 0 0 1 0,0.002 0.02133985,0.02133985 0 0 1 -0.002,0.002 0.02133985,0.02133985 0 0 1 -0.002,0 0.02133985,0.02133985 0 0 1 -0.002,0.002 0.02133985,0.02133985 0 0 1 -0.002,0 0.02133985,0.02133985 0 0 1 -0.002,0.002 0.02133985,0.02133985 0 0 1 -0.002,0 0.02133985,0.02133985 0 0 1 -0.002,0 0.02133985,0.02133985 0 0 1 -0.002,0 l -1.75195,0 a 0.02133985,0.02133985 0 0 1 -0.002,0 0.02133985,0.02133985 0 0 1 -0.002,0 0.02133985,0.02133985 0 0 1 -0.002,-0.002 0.02133985,0.02133985 0 0 1 -0.002,0 0.02133985,0.02133985 0 0 1 -0.002,0 0.02133985,0.02133985 0 0 1 -0.002,-0.002 0.02133985,0.02133985 0 0 1 -0.002,-0.002 0.02133985,0.02133985 0 0 1 -0.002,0 0.02133985,0.02133985 0 0 1 -0.002,-0.002 0.02133985,0.02133985 0 0 1 0,-0.002 0.02133985,0.02133985 0 0 1 -0.002,-0.002 0.02133985,0.02133985 0 0 1 0,-0.002 0.02133985,0.02133985 0 0 1 -0.002,-0.002 0.02133985,0.02133985 0 0 1 0,-0.002 0.02133985,0.02133985 0 0 1 0,-0.002 0.02133985,0.02133985 0 0 1 0,-0.002 0.02133985,0.02133985 0 0 1 0,-0.002 c 0.018,-0.27771 0.1119,-0.50258 0.28125,-0.66992 0.17103,-0.16701 0.38386,-0.25195 0.63281,-0.25195 z m 8.31055,0.004 c 0.24602,0 0.45825,0.10207 0.63086,0.30079 0.17589,0.20014 0.26172,0.49379 0.26172,0.88085 0,0.40459 -0.0836,0.70573 -0.25391,0.90039 -0.16884,0.19096 -0.37939,0.28711 -0.6289,0.28711 -0.25157,0 -0.46394,-0.0979 -0.63086,-0.29101 -0.16845,-0.19484 -0.25,-0.49977 -0.25,-0.91406 0,-0.38115 0.0839,-0.67093 0.2539,-0.86719 0.16864,-0.19674 0.37513,-0.29688 0.61719,-0.29688 z m 3.44727,0 c 0.26729,0 0.49314,0.10377 0.67187,0.3086 0.18181,0.20403 0.27148,0.50341 0.27148,0.89453 0,0.41456 -0.0896,0.72541 -0.26953,0.93164 -0.17871,0.20483 -0.40461,0.30859 -0.67382,0.30859 -0.27106,0 -0.49892,-0.10175 -0.67774,-0.30468 -0.17991,-0.20619 -0.26758,-0.51325 -0.26758,-0.91797 0,-0.40473 0.0876,-0.70984 0.26758,-0.91407 0.17877,-0.20287 0.40658,-0.30664 0.67774,-0.30664 z"
       transform="scale(1.0254977,0.97513626)" />
    <g
       transform="translate(46.135368,-20.649825)"
       id="g4460">
      <g
         id="g7668"
         transform="matrix(0.02734409,0,0,0.02493433,897.34624,711.33821)"
         style="fill:#d0031c;fill-opacity:1">
        <path
           id="path7670"
           transform="matrix(1.3279869,0,0,1.2804273,562.38017,-0.7335093)"
           style="opacity:1;fill:#d0031c;fill-opacity:1;stroke:none;stroke-width:300.79998779;stroke-linecap:square;stroke-linejoin:bevel;stroke-miterlimit:4;stroke-dasharray:none;stroke-opacity:1"
           d="m -1514.6422,2.6156811 -100,3.4e-6 -100,-4.2e-6 50,-86.6025353 50,-86.602535 50,86.602532 z m -199.6435,3.4e-6 200,0 0,254.3793755 -200,0 z"
           inkscape:connector-curvature="0" />
      </g>
      <path
         sodipodi:nodetypes="ccscscscscscccsccsccscsccccccc"
         d="m 853.59592,718.47461 c -0.13834,0 -0.26133,-0.0327 -0.36893,-0.098 -0.1076,-0.0622 -0.1614,-0.13556 -0.1614,-0.22048 0,-0.0588 0.0179,-0.13391 0.0538,-0.22538 0.0308,-0.0947 0.046,-0.16658 0.046,-0.21557 0,-0.72187 -0.0512,-1.86344 -0.15371,-3.42475 -0.10761,-1.51883 -0.1614,-2.65879 -0.1614,-3.41985 0,-0.0588 0.0359,-0.10778 0.1076,-0.14697 0.0768,-0.0391 0.16909,-0.0588 0.27669,-0.0588 0.12811,0 0.23827,0.0294 0.33049,0.0882 0.0974,0.0555 0.14604,0.12248 0.14604,0.20089 0,0.36256 0.0282,0.9652 0.0846,1.8079 0.0513,0.76432 0.0768,1.36533 0.0768,1.80301 l 0.0154,0.1225 c 0.005,0.036 0.008,0.0767 0.008,0.12247 0,0.0392 -0.002,0.0637 -0.008,0.0735 l 0,0.044 c 0.0409,0.6206 0.0615,1.4927 0.0615,2.61632 l 0,0.25477 2.20242,0 c 0.22545,0.098 0.33817,0.19762 0.33817,0.29887 0,0.0751 -0.0384,0.1421 -0.11529,0.20089 -0.0768,0.0555 -0.17165,0.0833 -0.28437,0.0833 -0.0513,0 -0.10504,-0.007 -0.1614,-0.0196 l -0.0768,-0.0147 c -0.0768,0.013 -0.17677,0.0196 -0.29975,0.0196 l -1.25704,-0.01 c -0.0768,-0.003 -0.1614,-0.005 -0.25365,-0.005 -0.1076,0.0817 -0.2562,0.12249 -0.44578,0.12249 z"
         style="font-style:normal;font-variant:normal;font-weight:bold;font-stretch:normal;font-size:medium;line-height:0%;font-family:'Amatic SC';-inkscape-font-specification:'Amatic SC Bold';letter-spacing:0px;word-spacing:0px;fill:#ffffff;fill-opacity:1;stroke:none;stroke-width:1px;stroke-linecap:butt;stroke-linejoin:miter;stroke-opacity:1"
         id="path7672"
         inkscape:connector-curvature="0" />
    </g>
  </g>
</svg>
