<?xml version="1.0" encoding="UTF-8" standalone="no"?>
<!-- Created with Inkscape (http://www.inkscape.org/) -->

<svg
   xmlns:dc="http://purl.org/dc/elements/1.1/"
   xmlns:cc="http://creativecommons.org/ns#"
   xmlns:rdf="http://www.w3.org/1999/02/22-rdf-syntax-ns#"
   xmlns:svg="http://www.w3.org/2000/svg"
   xmlns="http://www.w3.org/2000/svg"
   xmlns:sodipodi="http://sodipodi.sourceforge.net/DTD/sodipodi-0.dtd"
   xmlns:inkscape="http://www.inkscape.org/namespaces/inkscape"
   width="210mm"
   height="297mm"
   viewBox="0 0 744.09448819 1052.3622047"
   id="svg2"
   version="1.1"
   inkscape:version="0.91 r13725"
   sodipodi:docname="blemgo.svg"
   inkscape:export-filename="/home/olli/ownCloud/Projects/Montessori/wordpress-starter/example/wp-content/themes/understrap/img/src/BadSalzuflen-arrow.png"
   inkscape:export-xdpi="1728.3181"
   inkscape:export-ydpi="1728.3181">
  <defs
     id="defs4">
    <marker
       inkscape:stockid="TriangleOutL"
       orient="auto"
       refY="0.0"
       refX="0.0"
       id="TriangleOutL"
       style="overflow:visible"
       inkscape:isstock="true">
      <path
         id="path4696"
         d="M 5.77,0.0 L -2.88,5.0 L -2.88,-5.0 L 5.77,0.0 z "
         style="fill-rule:evenodd;stroke:#d0801c;stroke-width:1pt;stroke-opacity:1;fill:#d0801c;fill-opacity:1"
         transform="scale(0.8)" />
    </marker>
    <marker
       inkscape:stockid="Arrow2Mend"
       orient="auto"
       refY="0.0"
       refX="0.0"
       id="Arrow2Mend"
       style="overflow:visible;"
       inkscape:isstock="true">
      <path
         id="path4581"
         style="fill-rule:evenodd;stroke-width:0.625;stroke-linejoin:round;stroke:#000000;stroke-opacity:1;fill:#000000;fill-opacity:1"
         d="M 8.7185878,4.0337352 L -2.2072895,0.016013256 L 8.7185884,-4.0017078 C 6.9730900,-1.6296469 6.9831476,1.6157441 8.7185878,4.0337352 z "
         transform="scale(0.6) rotate(180) translate(0,0)" />
    </marker>
    <marker
       inkscape:stockid="Arrow2Lend"
       orient="auto"
       refY="0.0"
       refX="0.0"
       id="Arrow2Lend"
       style="overflow:visible;"
       inkscape:isstock="true">
      <path
         id="path4575"
         style="fill-rule:evenodd;stroke-width:0.625;stroke-linejoin:round;stroke:#000000;stroke-opacity:1;fill:#000000;fill-opacity:1"
         d="M 8.7185878,4.0337352 L -2.2072895,0.016013256 L 8.7185884,-4.0017078 C 6.9730900,-1.6296469 6.9831476,1.6157441 8.7185878,4.0337352 z "
         transform="scale(1.1) rotate(180) translate(1,0)" />
    </marker>
  </defs>
  <sodipodi:namedview
     id="base"
     pagecolor="#ffffff"
     bordercolor="#666666"
     borderopacity="1.0"
     inkscape:pageopacity="0.0"
     inkscape:pageshadow="2"
     inkscape:zoom="1.41"
     inkscape:cx="234.60299"
     inkscape:cy="507.59431"
     inkscape:document-units="px"
     inkscape:current-layer="layer1"
     showgrid="false"
     inkscape:window-width="1920"
     inkscape:window-height="1015"
     inkscape:window-x="0"
     inkscape:window-y="0"
     inkscape:window-maximized="1" />
  <metadata
     id="metadata7">
    <rdf:RDF>
      <cc:Work
         rdf:about="">
        <dc:format>image/svg+xml</dc:format>
        <dc:type
           rdf:resource="http://purl.org/dc/dcmitype/StillImage" />
        <dc:title></dc:title>
      </cc:Work>
    </rdf:RDF>
  </metadata>
  <g
     inkscape:label="Layer 1"
     inkscape:groupmode="layer"
     id="layer1">
    <g
       id="g4450"
       transform="matrix(0.56705007,0,0,0.56705007,224.10052,194.8679)"
       style="opacity:1">
      <g
         style="fill:#d0031c;fill-opacity:1"
         transform="matrix(0.1471555,0,0,0.13418705,-31.446853,510.35257)"
         id="g4144">
        <path
           inkscape:connector-curvature="0"
           d="m -1514.6422,2.6156811 -100,3.4e-6 -100,-4.2e-6 50,-86.6025353 50,-86.602535 50,86.602532 z m -199.6435,3.4e-6 200,0 0,254.3793755 -200,0 z"
           style="opacity:1;fill:#d0031c;fill-opacity:1;stroke:none;stroke-width:300.79998779;stroke-linecap:square;stroke-linejoin:bevel;stroke-miterlimit:4;stroke-dasharray:none;stroke-opacity:1"
           transform="matrix(1.3279869,0,0,1.2804273,562.38017,-0.7335093)"
           id="path4142" />
      </g>
      <path
         d="m -267.23428,548.97997 q -3.97082,0 -3.97082,-1.34472 0,-1.71388 0.20681,-6.64454 0.20682,-4.93066 0.20682,-6.64452 0,-4.13966 -0.28955,-10.96877 -0.28952,-6.82909 -0.28952,-10.96875 l 0,-0.3164 q 0,-0.79102 0.0826,-1.34472 0.0828,-0.55371 0.37226,-1.23926 0.24819,-0.71191 0.95135,-1.10742 0.70317,-0.39551 1.77861,-0.39551 3.97082,0 6.86621,1.13379 2.89538,1.10742 4.42581,3.11133 1.53041,2.0039 1.53041,4.61426 0,1.60839 -0.95134,3.40136 -0.90997,1.7666 -2.48176,3.26953 -1.57178,1.50294 -3.4331,2.34668 4.92215,2.10937 7.23848,5.45801 2.35765,3.34863 2.35765,7.33008 0,1.95117 -1.9854,4.667 -1.24088,1.63476 -2.81267,2.82127 -1.57178,1.18653 -3.92945,1.97755 -2.5645,0.84375 -5.5426,0.84375 l -0.3309,0 z m 0.78588,-23.8623 q 1.07544,-0.15821 2.02678,-0.76466 0.9927,-0.60644 1.73724,-1.58203 1.24088,-1.55566 2.35768,-3.6914 0.5377,-1.05469 0.82725,-1.47657 l 0,-1.9248 q 0,-1.05469 -0.86862,-2.13574 -0.86861,-1.08105 -2.27495,-1.7666 -1.40632,-0.71192 -2.93675,-0.71192 -1.19953,0 -1.19953,1.68751 0,2.63672 0.16536,6.32812 0.16538,3.6914 0.16538,6.03809 z m 0.37228,21.041 q 2.77129,-0.26367 4.79807,-1.29197 2.06813,-1.02834 3.14357,-2.584 1.11679,-1.58204 1.11679,-3.48046 0,-2.47852 -0.6618,-4.53516 -0.62044,-2.08301 -1.61314,-3.16407 -0.95135,-1.00194 -1.90269,-1.71386 -0.95133,-0.71191 -1.61316,-0.94923 l -0.66179,-0.18456 -3.01948,0 q 0.41363,7.11913 0.41363,17.90331 z"
         style="font-style:normal;font-variant:normal;font-weight:bold;font-stretch:normal;font-size:medium;line-height:0%;font-family:'Amatic SC';-inkscape-font-specification:'Amatic SC Bold';letter-spacing:0px;word-spacing:0px;fill:#ffffff;fill-opacity:1;stroke:none;stroke-width:1px;stroke-linecap:butt;stroke-linejoin:miter;stroke-opacity:1"
         id="path4206"
         inkscape:connector-curvature="0" />
      <path
         d="m -226.57248,549.01903 q -1.4094,0 -2.1141,-0.29297 -0.67405,-0.29297 -0.67405,-1.03515 0,-1.26954 -0.67406,-4.08203 l -0.24511,-0.85938 -6.18909,-0.58594 q -0.52086,1.15235 -1.04173,3.71094 -0.39831,1.97266 -1.19492,2.59765 -0.52086,0.39063 -1.28685,0.39063 -0.76597,0 -1.37874,-0.31249 -0.61279,-0.31251 -0.61279,-0.76173 0,-0.0586 0.0919,-0.19531 l 0.0612,-0.15625 q 4.19755,-10.33203 6.28101,-20.27344 0.12249,-0.85937 0.21447,-1.62109 0.15319,-1.48438 0.3983,-2.36328 0.24511,-0.89844 0.73535,-1.34766 l 2.1141,0 q 0.91916,0 1.53195,0.27344 0.61278,0.2539 0.61278,0.74219 0,3.02734 1.28684,9.04296 1.25619,6.07422 1.25619,8.63282 0,0.33203 0.33703,1.23047 0.33703,0.89843 0.33703,1.23046 0,0.42969 0.61278,2.38282 0.58214,1.85547 0.58214,2.48047 l 0,0.039 q 0,0.8789 -1.04173,1.13281 z m -4.10562,-7.69531 q -0.18384,-0.58594 -0.18384,-1.48438 0,-1.89453 -0.24511,-3.96484 -0.24512,-2.08984 -0.76599,-5.23437 -0.42894,-2.36329 -0.67405,-4.14063 -2.84944,10.03906 -3.67669,14.17969 1.04173,0.42968 5.54568,0.64453 z"
         style="font-style:normal;font-variant:normal;font-weight:bold;font-stretch:normal;font-size:medium;line-height:0%;font-family:'Amatic SC';-inkscape-font-specification:'Amatic SC Bold';letter-spacing:0px;word-spacing:0px;fill:#57575a;fill-opacity:1;stroke:none;stroke-width:1px;stroke-linecap:butt;stroke-linejoin:miter;stroke-opacity:1"
         id="path4208"
         inkscape:connector-curvature="0" />
      <path
         d="m -219.87885,548.88231 q -1.59324,0 -1.59324,-5.23437 0,-2.12891 0.0919,-6.3086 0.0919,-4.19922 0.0919,-6.28906 0,-1.28906 -0.36767,-3.94531 -0.36768,-2.63672 -0.36768,-3.57422 0,-0.50781 0.67406,-0.89844 0.7047,-0.41015 1.53195,-0.41015 2.17538,0 4.22819,0.64453 2.05283,0.625 3.61542,1.71875 1.56258,1.09375 2.69623,2.48047 1.13364,1.36718 1.71578,2.85156 0.58214,1.46485 0.58214,2.94921 l -0.0612,0.95704 -0.0613,1.05468 0,2.20704 q 0,1.34766 -0.0612,2.1875 -0.0307,0.82031 -0.21448,1.83593 -0.18384,1.07423 -0.52087,1.89454 -0.33702,0.80078 -0.94981,1.69921 -0.61278,0.87891 -1.47067,1.58203 -0.82725,0.6836 -2.11409,1.38673 -1.31748,0.68359 -2.91072,1.21093 l -4.53457,0 z m 2.78814,-2.03125 q 1.22557,0 2.29794,-0.42969 1.07236,-0.42969 1.8077,-1.13281 0.64342,-0.64453 1.16428,-1.58203 0.52087,-0.95703 0.82726,-1.93359 0.24511,-0.85938 0.42895,-1.89453 0.18382,-1.03516 0.24511,-1.79688 0.0307,-0.46875 0.0307,-1.38671 0,-12.07032 -7.29209,-12.6172 -0.45959,1.58203 -0.45959,4.16016 0,3.125 0.49023,8.82812 0.45958,5.87891 0.45958,8.82813 l 0,0.95703 z"
         style="font-style:normal;font-variant:normal;font-weight:bold;font-stretch:normal;font-size:medium;line-height:0%;font-family:'Amatic SC';-inkscape-font-specification:'Amatic SC Bold';letter-spacing:0px;word-spacing:0px;fill:#57575a;fill-opacity:1;stroke:none;stroke-width:1px;stroke-linecap:butt;stroke-linejoin:miter;stroke-opacity:1"
         id="path4210"
         inkscape:connector-curvature="0" />
      <path
         d="m -191.50902,549.52685 q -2.26729,0 -3.86051,-0.52735 -1.0111,-0.3125 -1.0111,-0.82031 0,-0.46876 0.36767,-0.76172 0.36767,-0.3125 1.04173,-0.3125 0.73533,0 1.86898,0.29297 1.103,0.31249 1.59323,0.31249 1.16428,0 2.14474,-0.66406 1.01108,-0.66405 1.59322,-1.71874 0.55151,-0.97656 0.82726,-1.9336 0.30639,-0.95703 0.30639,-1.67969 0,-1.69921 -0.85789,-3.59374 -0.8579,-1.89454 -2.29793,-3.71094 l -0.88854,-1.11329 q -1.5013,-1.85547 -2.42048,-3.12499 -0.91917,-1.28907 -1.59323,-2.71485 -0.91916,-1.91406 -0.91916,-3.71093 0,-1.44532 0.76597,-2.71485 0.76598,-1.28906 2.3592,-2.1875 1.59324,-0.9375 3.86052,-0.9375 1.13365,0 2.20602,0.41016 1.07236,0.41015 1.5013,1.03515 l -1.07236,0.85938 q -1.56259,0 -2.45113,-0.39062 -1.103,0.0781 -1.99153,0.68359 -0.8579,0.60547 -1.22556,1.42578 -0.36767,0.78125 -0.36767,1.52344 0,1.54297 0.64341,3.14453 0.64343,1.58203 1.71579,2.92968 l 0.45959,0.58594 q 2.94135,3.69141 3.9218,5.01954 1.07236,1.42578 1.71579,3.24218 0.64341,1.79688 0.64341,3.59375 0,1.25 -0.55149,2.53907 -0.52087,1.28906 -1.50132,2.42187 -1.04173,1.19141 -2.75752,1.89453 -1.71578,0.70313 -3.7686,0.70313 z"
         style="font-style:normal;font-variant:normal;font-weight:bold;font-stretch:normal;font-size:medium;line-height:0%;font-family:'Amatic SC';-inkscape-font-specification:'Amatic SC Bold';letter-spacing:0px;word-spacing:0px;fill:#57575a;fill-opacity:1;stroke:none;stroke-width:1px;stroke-linecap:butt;stroke-linejoin:miter;stroke-opacity:1"
         id="path4214"
         inkscape:connector-curvature="0" />
      <path
         d="m -164.01143,549.01903 q -1.40939,0 -2.11409,-0.29297 -0.67406,-0.29297 -0.67406,-1.03515 0,-1.26954 -0.67407,-4.08203 l -0.24511,-0.85938 -6.18909,-0.58594 q -0.52086,1.15235 -1.04172,3.71094 -0.39831,1.97266 -1.19493,2.59765 -0.52086,0.39063 -1.28684,0.39063 -0.76597,0 -1.37875,-0.31249 -0.61278,-0.31251 -0.61278,-0.76173 0,-0.0586 0.0919,-0.19531 l 0.0613,-0.15625 q 4.19755,-10.33203 6.281,-20.27344 0.12262,-0.85937 0.21447,-1.62109 0.1532,-1.48438 0.39831,-2.36328 0.24512,-0.89844 0.73534,-1.34766 l 2.1141,0 q 0.91916,0 1.53195,0.27344 0.61278,0.2539 0.61278,0.74219 0,3.02734 1.28684,9.04296 1.25619,6.07422 1.25619,8.63282 0,0.33203 0.33704,1.23047 0.33703,0.89843 0.33703,1.23046 0,0.42969 0.61277,2.38282 0.58215,1.85547 0.58215,2.48047 l 0,0.039 q 0,0.8789 -1.04172,1.13281 z m -4.10563,-7.69531 q -0.18384,-0.58594 -0.18384,-1.48438 0,-1.89453 -0.24511,-3.96484 -0.24511,-2.08984 -0.76599,-5.23437 -0.42893,-2.36329 -0.67405,-4.14063 -2.84942,10.03906 -3.67668,14.17969 1.04172,0.42968 5.54567,0.64453 z"
         style="font-style:normal;font-variant:normal;font-weight:bold;font-stretch:normal;font-size:medium;line-height:0%;font-family:'Amatic SC';-inkscape-font-specification:'Amatic SC Bold';letter-spacing:0px;word-spacing:0px;fill:#57575a;fill-opacity:1;stroke:none;stroke-width:1px;stroke-linecap:butt;stroke-linejoin:miter;stroke-opacity:1"
         id="path4216"
         inkscape:connector-curvature="0" />
      <path
         d="m -149.93373,549.29247 q -2.29794,-0.46875 -5.60695,-0.46875 -0.98045,0.37109 -2.14474,0.37109 -0.70469,0 -1.2562,-0.41015 -0.52086,-0.41016 -0.52086,-0.89844 0,-3.1836 0.3983,-8.94532 0.39831,-5.72265 0.39831,-8.92578 l 0,-0.29296 q -0.36767,-2.50001 -0.36767,-3.75 0,-3.78907 2.17538,-3.78907 0.64341,0 1.103,0.29297 0.49022,0.29297 0.49022,0.70313 0,0.56641 -0.21447,1.52344 -0.21447,0.95702 -0.21447,1.52343 0,1.60156 0.0919,4.80469 0.0919,3.18359 0.0919,4.80469 -0.36767,0.54687 -0.36767,1.67968 l 0,0.48829 q 0,1.30859 -0.12249,3.16406 -0.12262,1.85547 -0.12262,3.20313 0,2.7539 2.1141,2.7539 l 1.16428,-0.039 q 0.58214,-0.0196 1.44003,-0.0196 3.3703,0 3.3703,1.17187 0,0.41016 -0.58214,0.70313 -0.55151,0.29297 -1.31748,0.35156 z"
         style="font-style:normal;font-variant:normal;font-weight:bold;font-stretch:normal;font-size:medium;line-height:0%;font-family:'Amatic SC';-inkscape-font-specification:'Amatic SC Bold';letter-spacing:0px;word-spacing:0px;fill:#57575a;fill-opacity:1;stroke:none;stroke-width:1px;stroke-linecap:butt;stroke-linejoin:miter;stroke-opacity:1"
         id="path4218"
         inkscape:connector-curvature="0" />
      <path
         d="m -142.84179,548.72606 q -0.67406,0 -1.19492,-0.25391 -0.49022,-0.2539 -0.49022,-0.64452 0,-2.40235 1.44003,-6.25 1.44004,-3.84766 4.32011,-9.78516 2.54304,-5.19531 3.5235,-7.67578 l -2.45113,0.11718 q -1.68514,0.11719 -2.6656,0.11719 -0.64342,0 -1.13364,-0.33202 -0.49024,-0.35157 -0.49024,-0.78126 0,-1.13281 6.8938,-1.13281 3.09454,0 3.09454,1.11328 0,1.38672 -1.34812,3.8086 -1.40939,2.48047 -1.62387,3.39843 -0.76597,3.06641 -3.27838,9.27735 -2.54303,6.30859 -2.72687,6.89452 l 1.07236,0 q 0.45959,0 1.31748,-0.0586 0.88854,-0.0586 1.31749,-0.0586 l 0,-0.0196 q 2.54303,0 2.54303,0.97657 0,0.44922 -0.64341,0.72265 -0.64343,0.25391 -1.53195,0.25391 -0.58215,0 -1.83835,-0.0586 -1.25621,-0.0586 -1.86898,-0.0586 -0.36767,0 -1.10301,0.21485 -0.76598,0.21484 -1.13365,0.21484 z"
         style="font-style:normal;font-variant:normal;font-weight:bold;font-stretch:normal;font-size:medium;line-height:0%;font-family:'Amatic SC';-inkscape-font-specification:'Amatic SC Bold';letter-spacing:0px;word-spacing:0px;fill:#57575a;fill-opacity:1;stroke:none;stroke-width:1px;stroke-linecap:butt;stroke-linejoin:miter;stroke-opacity:1"
         id="path4220"
         inkscape:connector-curvature="0" />
      <path
         d="m -121.01242,549.25341 q -1.50131,0 -2.69623,-0.42969 -1.19492,-0.42969 -1.93026,-1.21094 -0.76598,-0.82031 -1.2562,-1.71875 -0.49023,-0.91797 -0.73534,-2.07031 -0.42895,-2.01172 -0.42895,-4.41406 -0.15319,-4.78516 -0.15319,-10.54688 0,-1.38671 -0.1532,-3.88672 l -0.12255,-1.83593 q 0.58214,-0.83985 1.34812,-0.83985 0.73533,0 1.31747,0.72266 0.58215,0.72266 0.58215,1.5625 l 0,10.8789 q 0,1.42578 0.45958,4.23829 0.42895,2.91015 0.42895,4.23828 0,2.92968 3.98308,2.92968 4.4733,0 4.4733,-21.5039 l 0,-2.24609 0,-0.35157 q -0.0306,-0.13672 -0.0306,-0.3125 0,-0.48828 0.36767,-0.70313 0.36767,-0.23437 1.34812,-0.23437 0.79661,0 1.28684,0.3125 0.49022,0.29297 0.58214,0.6836 0.0613,0.46875 0.0613,0.9375 0,0.78124 -0.21447,2.03125 -0.21447,1.25 -0.21447,1.99219 0,0.66405 -0.12256,1.66015 -0.15319,1.23047 -0.15319,1.67969 0,0.19531 0.0306,0.33203 0.0306,0.15625 0.0306,0.35156 0,17.75391 -8.08871,17.75391 z"
         style="font-style:normal;font-variant:normal;font-weight:bold;font-stretch:normal;font-size:medium;line-height:0%;font-family:'Amatic SC';-inkscape-font-specification:'Amatic SC Bold';letter-spacing:0px;word-spacing:0px;fill:#57575a;fill-opacity:1;stroke:none;stroke-width:1px;stroke-linecap:butt;stroke-linejoin:miter;stroke-opacity:1"
         id="path4222"
         inkscape:connector-curvature="0" />
      <path
         d="m -106.53634,548.9995 q -1.01109,0 -2.23665,-0.60547 0.52086,-3.73047 0.79661,-10.17578 0.21448,-6.32813 0.42895,-8.61328 l 0,-0.97656 q 0.24511,-3.08594 0.24511,-5.42969 0,-0.54688 0.7047,-0.85938 0.73534,-0.33202 1.71579,-0.33202 2.17537,0 4.68777,0.23437 1.62387,0.15625 2.57368,0.52734 0.98045,0.35157 0.98045,0.85937 0,1.13282 -3.18646,1.13282 -1.28684,-0.39063 -3.27838,-0.39063 l -0.73534,0 0,0.46875 q 0,1.28907 -0.27575,3.96485 -0.30639,2.55859 -0.30639,4.06249 l 0,1.07423 0.52087,-0.0196 0.64342,0 q 3.03326,0 3.03326,1.05468 0,0.50781 -0.67406,0.83985 -0.64342,0.33202 -1.53195,0.33202 -1.31748,0 -2.48176,-0.23437 l 0,11.32813 q 0,1.7578 -1.62387,1.7578 z m 23.867815,0.29297 q -2.29793,-0.46875 -5.60695,-0.46875 -0.98045,0.37109 -2.14473,0.37109 -0.7047,0 -1.25621,-0.41015 -0.52086,-0.41016 -0.52086,-0.89844 0,-3.1836 0.39831,-8.94532 0.3983,-5.72265 0.3983,-8.92578 l 0,-0.29296 q -0.36766,-2.50001 -0.36766,-3.75 0,-3.78907 2.17537,-3.78907 0.64342,0 1.10301,0.29297 0.49022,0.29297 0.49022,0.70313 0,0.56641 -0.21447,1.52344 -0.21447,0.95702 -0.21447,1.52343 0,1.60156 0.0919,4.80469 0.0919,3.18359 0.0919,4.80469 -0.36767,0.54687 -0.36767,1.67968 l 0,0.48829 q 0,1.30859 -0.12256,3.16406 -0.12255,1.85547 -0.12255,3.20313 0,2.7539 2.11409,2.7539 l 1.16429,-0.039 q 0.58214,-0.0196 1.44003,-0.0196 3.3703,0 3.3703,1.17187 0,0.41016 -0.58214,0.70313 -0.55151,0.29297 -1.31749,0.35156 z"
         style="font-style:normal;font-variant:normal;font-weight:bold;font-stretch:normal;font-size:medium;line-height:0%;font-family:'Amatic SC';-inkscape-font-specification:'Amatic SC Bold';letter-spacing:0px;word-spacing:0px;fill:#57575a;fill-opacity:1;stroke:none;stroke-width:1px;stroke-linecap:butt;stroke-linejoin:miter;stroke-opacity:1"
         id="path4224"
         inkscape:connector-curvature="0" />
      <path
         d="m -74.657389,549.17528 q -0.857894,0 -1.531952,-0.37109 -0.643421,-0.35157 -0.674059,-0.85938 l 0,-1.05469 q 0,-0.42968 -0.03064,-0.80077 l -0.06128,-0.83985 q 0,-0.64453 -0.153195,-2.5586 -0.153196,-1.89453 -0.153196,-2.55859 0,-2.20703 0.214474,-5.83984 0.214473,-3.63281 0.214473,-5.83984 0,-0.42969 -0.153196,-1.69922 -0.183834,-1.11329 -0.183834,-1.67969 0,-2.83203 2.634958,-2.83203 1.194924,0 3.002627,0.2539 1.838344,0.23438 3.155823,0.64454 1.348118,0.39062 1.348118,0.87891 0,0.41015 -0.520864,0.74218 -0.520863,0.3125 -1.317479,0.50781 -2.880071,-0.60547 -4.749053,-0.76172 0.09192,0.83984 0.09192,1.71875 0,1.17188 -0.122555,2.87109 -0.153196,2.10938 -0.153196,2.8711 l 0.183834,0.625 1.011089,-0.039 q 0.520865,-0.0196 1.225562,-0.0196 3.033266,0 3.033266,1.09375 0,0.42968 -0.582141,0.76172 -0.551503,0.3125 -1.409397,0.3125 -0.919171,0 -1.777065,-0.0781 l -1.59323,0 q 0.183833,1.52344 0.183833,3.02734 0,1.44532 -0.122555,3.61328 -0.153196,2.69532 -0.153196,3.63282 0,2.2461 0.122556,2.2461 l 2.052817,-0.0586 2.57368,-0.039 q 2.389846,0 2.389846,0.97656 0,0.56641 -0.796615,0.85938 -0.765976,0.29297 -1.899622,0.29297 l -5.300555,0 z"
         style="font-style:normal;font-variant:normal;font-weight:bold;font-stretch:normal;font-size:medium;line-height:0%;font-family:'Amatic SC';-inkscape-font-specification:'Amatic SC Bold';letter-spacing:0px;word-spacing:0px;fill:#57575a;fill-opacity:1;stroke:none;stroke-width:1px;stroke-linecap:butt;stroke-linejoin:miter;stroke-opacity:1"
         id="path4226"
         inkscape:connector-curvature="0" />
      <path
         d="m -46.608294,548.76512 q -0.796615,0 -1.164284,-0.2539 -0.367668,-0.27344 -0.582141,-0.89844 -0.214474,-0.56641 -0.36767,-0.78125 l 0.03064,-0.0781 0,-0.0977 q 0,-0.91797 -2.083455,-4.94141 -2.083456,-4.02343 -4.810332,-8.67187 -2.696236,-4.64844 -4.136271,-6.75781 l 0,20.13671 q 0,0 0.245113,0.27344 0.398308,0.41016 0.398308,0.66407 0,0.5078 -0.582143,0.8789 -0.551503,0.37109 -1.317479,0.37109 -2.052816,0 -2.052816,-2.4414 l -0.06127,-6.85547 -0.06128,-6.85547 q 0,-1.25 0.183835,-3.73047 0.183835,-2.5 0.183835,-3.73046 0,-1.875 2.297928,-2.94923 l 0,0.25391 q 0.245113,-0.0977 0.459586,-0.0977 1.470674,0 3.676686,3.22266 1.715787,2.51953 3.186461,5.50782 1.501314,2.98828 3.431574,7.34375 l 0.919172,2.05078 q 1.715786,3.86718 2.175371,4.6289 1.256202,-8.47656 1.256202,-20.29297 0,-0.27343 -0.03064,-0.52734 l -0.06128,-0.54687 q 0,-1.19141 1.562592,-1.19141 0.857893,0 1.317479,0.44922 0.459586,0.44922 0.459586,1.11328 l 0,3.02734 q -0.06128,3.53516 -0.367669,8.37891 -0.275752,4.84374 -0.796615,8.65234 -0.490224,3.78907 -1.103006,4.41406 -1.746426,0.33203 -2.206012,0.33203 z"
         style="font-style:normal;font-variant:normal;font-weight:bold;font-stretch:normal;font-size:medium;line-height:0%;font-family:'Amatic SC';-inkscape-font-specification:'Amatic SC Bold';letter-spacing:0px;word-spacing:0px;fill:#57575a;fill-opacity:1;stroke:none;stroke-width:1px;stroke-linecap:butt;stroke-linejoin:miter;stroke-opacity:1"
         id="path4228"
         inkscape:connector-curvature="0" />
    </g>
    <g
       id="g7634"
       transform="translate(0,-1.2928932)">
      <path
         style="color:#000000;font-style:normal;font-variant:normal;font-weight:normal;font-stretch:normal;font-size:medium;line-height:normal;font-family:sans-serif;text-indent:0;text-align:start;text-decoration:none;text-decoration-line:none;text-decoration-style:solid;text-decoration-color:#000000;letter-spacing:normal;word-spacing:normal;text-transform:none;direction:ltr;block-progression:tb;writing-mode:lr-tb;baseline-shift:baseline;text-anchor:start;white-space:normal;clip-rule:nonzero;display:inline;overflow:visible;visibility:visible;opacity:1;isolation:auto;mix-blend-mode:normal;color-interpolation:sRGB;color-interpolation-filters:linearRGB;solid-color:#000000;solid-opacity:1;fill:#d0801c;fill-opacity:1;fill-rule:evenodd;stroke:none;stroke-width:0.84200001;stroke-linecap:butt;stroke-linejoin:miter;stroke-miterlimit:5.19999981;stroke-dasharray:none;stroke-dashoffset:0;stroke-opacity:1;color-rendering:auto;image-rendering:auto;shape-rendering:auto;text-rendering:auto;enable-background:accumulate"
         d="m 49.755859,497.67372 -17.605468,0.47193 0.0078,2.64157 17.605469,-0.47193 -0.0078,-2.64157 z"
         id="path4548"
         inkscape:connector-curvature="0" />
      <path
         style="fill:#d0801c;fill-opacity:1;fill-rule:evenodd;stroke:#d0801c;stroke-width:0.67360001pt;stroke-opacity:1"
         d="m 53.645888,498.87151 -5.797698,3.41759 -0.05746,-6.73576 5.855159,3.31817 z"
         id="path7630"
         inkscape:connector-curvature="0" />
    </g>
    <g
       style="opacity:1"
       transform="matrix(0.56705007,0,0,0.56705007,228.87994,212.08627)"
       id="g7666">
      <g
         style="fill:#d0031c;fill-opacity:1"
         transform="matrix(0.1471555,0,0,0.13418705,-39.875424,592.85257)"
         id="g7668">
        <path
           inkscape:connector-curvature="0"
           d="m -1514.6422,2.6156811 -100,3.4e-6 -100,-4.2e-6 50,-86.6025353 50,-86.602535 50,86.602532 z m -199.6435,3.4e-6 200,0 0,254.3793755 -200,0 z"
           style="opacity:1;fill:#d0031c;fill-opacity:1;stroke:none;stroke-width:300.79998779;stroke-linecap:square;stroke-linejoin:bevel;stroke-miterlimit:4;stroke-dasharray:none;stroke-opacity:1"
           transform="matrix(1.3279869,0,0,1.2804273,562.38017,-0.7335093)"
           id="path7670" />
      </g>
      <path
         inkscape:connector-curvature="0"
         id="path7672"
         style="font-style:normal;font-variant:normal;font-weight:bold;font-stretch:normal;font-size:medium;line-height:0%;font-family:'Amatic SC';-inkscape-font-specification:'Amatic SC Bold';letter-spacing:0px;word-spacing:0px;fill:#ffffff;fill-opacity:1;stroke:none;stroke-width:1px;stroke-linecap:butt;stroke-linejoin:miter;stroke-opacity:1"
         d="m -275.32301,631.25802 c -0.74452,0 -1.40633,-0.17578 -1.98541,-0.52734 -0.57907,-0.33399 -0.86861,-0.7295 -0.86861,-1.18653 0,-0.3164 0.0965,-0.72069 0.28954,-1.21289 0.16544,-0.50976 0.24817,-0.89648 0.24817,-1.16015 0,-3.88477 -0.27575,-10.02833 -0.82726,-18.43067 -0.57907,-8.17383 -0.8686,-14.3086 -0.8686,-18.4043 0,-0.31639 0.19302,-0.58008 0.57907,-0.79101 0.41363,-0.21094 0.90998,-0.3164 1.48906,-0.3164 0.68938,0 1.28225,0.1582 1.7786,0.4746 0.52392,0.29882 0.78589,0.65918 0.78589,1.08107 0,1.95117 0.15166,5.19434 0.45499,9.72949 0.27574,4.11327 0.41361,7.34764 0.41361,9.70311 l 0.0828,0.65918 c 0.0277,0.19336 0.0414,0.4131 0.0414,0.65919 0,0.21094 -0.0138,0.34277 -0.0414,0.3955 l 0,0.23731 c 0.2206,3.33984 0.3309,8.0332 0.3309,14.08008 l 0,1.37109 11.85258,0 c 1.21331,0.52734 1.81996,1.06346 1.81996,1.60839 0,0.4043 -0.20682,0.76465 -0.62045,1.08107 -0.41362,0.29882 -0.92376,0.44822 -1.53042,0.44822 -0.27574,0 -0.56528,-0.0351 -0.86861,-0.10543 l -0.41364,-0.0791 c -0.41362,0.0703 -0.95133,0.10544 -1.61314,0.10544 l -6.76497,-0.0526 c -0.41361,-0.0177 -0.8686,-0.0265 -1.36496,-0.0265 -0.57908,0.43943 -1.37877,0.65916 -2.39904,0.65916 z"
         sodipodi:nodetypes="ccscscscscscccsccsccscsccccccc" />
      <path
         inkscape:connector-curvature="0"
         id="path7674"
         style="font-style:normal;font-variant:normal;font-weight:bold;font-stretch:normal;font-size:medium;line-height:0%;font-family:'Amatic SC';-inkscape-font-specification:'Amatic SC Bold';letter-spacing:0px;word-spacing:0px;fill:#57575a;fill-opacity:1;stroke:none;stroke-width:1px;stroke-linecap:butt;stroke-linejoin:miter;stroke-opacity:1"
         d="m -246.40516,631.33614 q -0.85789,0 -1.53195,-0.37109 -0.64343,-0.35156 -0.67406,-0.85937 l 0,-1.05469 q 0,-0.42969 -0.0307,-0.80078 l -0.0612,-0.83985 q 0,-0.64453 -0.1532,-2.55859 -0.15319,-1.89453 -0.15319,-2.55859 0,-2.20704 0.21448,-5.83985 0.21446,-3.63281 0.21446,-5.83984 0,-0.42969 -0.15319,-1.69922 -0.18384,-1.11328 -0.18384,-1.67969 0,-2.83203 2.63497,-2.83203 1.19492,0 3.00262,0.25391 1.83834,0.23438 3.15582,0.64453 1.34813,0.39062 1.34813,0.87891 0,0.41015 -0.52087,0.74218 -0.52086,0.3125 -1.31748,0.50782 -2.88007,-0.60547 -4.74905,-0.76173 0.0919,0.83985 0.0919,1.71875 0,1.17188 -0.12249,2.8711 -0.15319,2.10938 -0.15319,2.8711 l 0.18384,0.62499 1.01108,-0.039 q 0.52087,-0.0196 1.22557,-0.0196 3.03325,0 3.03325,1.09375 0,0.42969 -0.58214,0.76172 -0.55149,0.3125 -1.40938,0.3125 -0.91918,0 -1.77708,-0.0782 l -1.59322,0 q 0.18383,1.52345 0.18383,3.02735 0,1.44531 -0.1225,3.61328 -0.15319,2.69532 -0.15319,3.63281 0,2.2461 0.12249,2.2461 l 2.05283,-0.0586 2.57367,-0.039 q 2.38985,0 2.38985,0.97656 0,0.5664 -0.79662,0.85937 -0.76598,0.29297 -1.89962,0.29297 l -5.30055,0 z" />
      <path
         inkscape:connector-curvature="0"
         id="path7676"
         style="font-style:normal;font-variant:normal;font-weight:bold;font-stretch:normal;font-size:medium;line-height:0%;font-family:'Amatic SC';-inkscape-font-specification:'Amatic SC Bold';letter-spacing:0px;word-spacing:0px;fill:#57575a;fill-opacity:1;stroke:none;stroke-width:1px;stroke-linecap:butt;stroke-linejoin:miter;stroke-opacity:1"
         d="m -206.268,632.89864 q -1.9609,0 -1.9609,-2.49999 0,-1.40625 0.0307,-2.5586 l 0,-2.55859 q 0,-1.79687 -0.45959,-5.21485 -0.45957,-3.4375 -0.45957,-5 0,-0.99609 0.12249,-2.48047 0.1225,-1.46484 0.1225,-2.46093 -0.27576,0.54687 -2.1141,5.52734 -1.99154,5.3125 -3.73797,8.96485 -1.89962,3.96484 -3.09454,3.96484 -1.19493,0 -1.89963,-0.46875 -0.7047,-0.46875 -0.7047,-1.25 0,-1.17188 -1.103,-4.33594 -1.07236,-3.18359 -2.57368,-6.75781 -1.50132,-3.59375 -2.63495,-5.76172 l -0.36767,4.51172 q -0.27576,3.10547 -0.42895,5.13672 -0.12249,2.03125 -0.24511,4.375 -0.15319,3.08594 -0.15319,5.03906 l 0.0612,0.60547 q 0.0307,0.27344 0.0307,0.58594 0,0.68359 -0.45958,0.99609 -0.45958,0.33203 -1.62387,0.33203 -0.64343,0 -1.22557,-0.29296 -0.55149,-0.27345 -0.55149,-0.66407 0,-3.94531 0.98044,-12.22656 0.94981,-8.00782 0.94981,-12.22656 -0.36766,-0.39063 -0.36766,-0.78125 0,-0.48829 0.70469,-0.72266 0.73534,-0.2539 1.7158,-0.2539 0.82725,0 3.00262,3.76953 2.17536,3.75 4.38138,8.51562 2.20601,4.7461 2.84943,6.875 0.33703,-0.70312 1.16428,-2.96875 2.17538,-5.95703 4.01372,-10.13672 1.19493,-2.69531 2.32857,-4.3164 1.19492,-1.67969 2.11409,-1.67969 0.88854,0 1.59324,0.31249 0.7047,0.29297 0.7047,0.78126 0,3.10546 0.3983,8.63281 0.3983,5.52735 0.3983,8.33984 l -0.0612,2.10938 q -0.0919,1.40625 -0.0919,2.10937 l 0,0.0196 q 0,0.35156 0.36767,2.83203 l 0.12262,0.80078 q 0.27576,0.44922 0.27576,0.76172 0,0.66406 -0.61279,1.19141 -0.58213,0.52734 -1.50131,0.52734 z" />
      <path
         inkscape:connector-curvature="0"
         id="path7678"
         style="font-style:normal;font-variant:normal;font-weight:bold;font-stretch:normal;font-size:medium;line-height:0%;font-family:'Amatic SC';-inkscape-font-specification:'Amatic SC Bold';letter-spacing:0px;word-spacing:0px;fill:#57575a;fill-opacity:1;stroke:none;stroke-width:1px;stroke-linecap:butt;stroke-linejoin:miter;stroke-opacity:1"
         d="m -188.19097,631.1213 q -1.74641,0 -3.21709,-0.41015 -1.47067,-0.42969 -2.45113,-1.09376 -0.82725,-0.5664 -1.50132,-1.60156 -0.64341,-1.05468 -1.04171,-2.1289 -0.3064,-0.80078 -0.49024,-2.20704 -0.18383,-1.42578 -0.21446,-2.46093 -0.0307,-0.56641 -0.0307,-2.34375 l 0,-1.58203 q 0,-2.30469 0.15321,-3.8086 0.0919,-1.05469 0.27574,-1.875 0.18384,-0.83984 0.52086,-1.91406 0.3064,-0.97656 0.76598,-1.69922 0.45959,-0.72265 1.19492,-1.46484 0.7047,-0.70313 1.59324,-1.15235 0.88853,-0.46875 2.1141,-0.74219 1.22555,-0.27343 2.63495,-0.27343 2.6656,0 2.6656,1.01562 0,0.44922 -0.61279,0.76172 -0.58214,0.31251 -1.37875,0.31251 -0.27576,0 -0.67406,-0.0586 l -0.64343,-0.039 q -1.07236,0 -1.93025,0.74219 -0.82726,0.72266 -1.34811,1.99219 -1.04173,2.57812 -1.34813,5.41016 -0.24511,2.30469 -0.24511,4.02343 0,1.85547 0.18384,3.73047 0.12249,1.17188 0.33703,2.03125 0.24511,0.83984 0.7047,1.79687 0.42894,0.95704 1.04172,1.5625 0.61279,0.58594 1.5626,0.97657 0.98044,0.41016 2.14473,0.41016 3.03327,0 3.03327,-6.36719 l 0,-1.83594 q -0.49024,-0.15625 -1.47068,-0.15625 l -0.55151,0 q -0.27575,0.0196 -0.67405,0.0196 -2.17538,0 -2.17538,-0.91797 0,-0.54687 0.58214,-0.83984 0.61278,-0.3125 1.56259,-0.3125 l 0,0.0196 0.8579,0 q 5.63759,0 5.63759,1.23047 0,0.44922 -0.33703,1.46485 -0.33703,1.01562 -0.33703,1.44531 0,0.50781 0.15319,2.10937 0.1532,1.60157 0.1532,2.12891 0,1.26953 -0.98046,2.20703 -0.98044,0.91797 -2.63495,1.40625 -1.62387,0.48828 -3.58478,0.48828 z" />
      <path
         inkscape:connector-curvature="0"
         id="path7680"
         style="font-style:normal;font-variant:normal;font-weight:bold;font-stretch:normal;font-size:medium;line-height:0%;font-family:'Amatic SC';-inkscape-font-specification:'Amatic SC Bold';letter-spacing:0px;word-spacing:0px;fill:#57575a;fill-opacity:1;stroke:none;stroke-width:1px;stroke-linecap:butt;stroke-linejoin:miter;stroke-opacity:1"
         d="m -167.32577,631.55099 q -1.68515,0 -3.0639,-0.64453 -1.37876,-0.64453 -2.20601,-1.79687 -1.77707,-2.36329 -2.29794,-5.3125 -0.52086,-2.73438 -0.52086,-5.21485 0,-0.48828 0.0307,-0.80078 0.0307,-0.3125 0.0307,-0.72266 0,-0.19531 -0.0919,-0.19531 l 0,-0.72265 q 0,-0.3125 0.0613,-1.71876 0,-0.625 0.0307,-1.07421 0.0307,-1.07423 0.12262,-1.91407 0.1225,-0.83984 0.36768,-2.1875 0.18383,-1.09375 0.52086,-1.93359 0.33703,-0.85937 0.88854,-1.77735 0.45957,-0.80077 1.16427,-1.21093 0.7047,-0.42969 1.5626,-0.42969 2.5124,0 4.53457,0.58594 2.02218,0.58593 3.3703,1.62109 1.25621,0.99609 2.1141,2.4414 0.88853,1.44532 1.2562,3.12501 0.36767,1.64062 0.36767,3.55469 l 0,0.29296 0.0613,2.26563 0.0612,2.26563 q 0,11.5039 -8.36446,11.5039 z m -0.24511,-1.66016 q 1.103,0 2.02218,-0.56641 0.94981,-0.58593 1.5013,-1.60156 1.10302,-2.01172 1.44005,-4.37499 0.27574,-2.10938 0.27574,-3.5547 0,-1.69921 -0.3983,-4.68749 -0.42895,-3.22266 -0.42895,-4.62891 l 0,-0.70312 q -0.0613,-0.97657 -0.73533,-1.83594 -0.67407,-0.8789 -1.83835,-1.38672 -1.16429,-0.52734 -2.60432,-0.52734 -2.14473,0 -2.84943,1.54296 -0.33703,0.72266 -0.45959,1.46485 -0.12249,0.72266 -0.12249,1.71875 0,0.76172 0.0307,1.28906 0.0307,0.52734 0.0307,1.07422 0,0.48828 -0.15319,1.85547 -0.15319,1.36718 -0.15319,1.83594 0,1.44531 0.24511,4.27734 0.24511,3.00781 1.22556,5.83984 0.45959,1.38672 1.22557,2.18751 0.7966,0.78124 1.74643,0.78124 z" />
    </g>
    <g
       transform="translate(0,62.707107)"
       id="g7682">
      <path
         inkscape:connector-curvature="0"
         id="path7684"
         d="m 49.755859,497.67372 -17.605468,0.47193 0.0078,2.64157 17.605469,-0.47193 -0.0078,-2.64157 z"
         style="color:#000000;font-style:normal;font-variant:normal;font-weight:normal;font-stretch:normal;font-size:medium;line-height:normal;font-family:sans-serif;text-indent:0;text-align:start;text-decoration:none;text-decoration-line:none;text-decoration-style:solid;text-decoration-color:#000000;letter-spacing:normal;word-spacing:normal;text-transform:none;direction:ltr;block-progression:tb;writing-mode:lr-tb;baseline-shift:baseline;text-anchor:start;white-space:normal;clip-rule:nonzero;display:inline;overflow:visible;visibility:visible;opacity:1;isolation:auto;mix-blend-mode:normal;color-interpolation:sRGB;color-interpolation-filters:linearRGB;solid-color:#000000;solid-opacity:1;fill:#d0801c;fill-opacity:1;fill-rule:evenodd;stroke:none;stroke-width:0.84200001;stroke-linecap:butt;stroke-linejoin:miter;stroke-miterlimit:5.19999981;stroke-dasharray:none;stroke-dashoffset:0;stroke-opacity:1;color-rendering:auto;image-rendering:auto;shape-rendering:auto;text-rendering:auto;enable-background:accumulate" />
      <path
         inkscape:connector-curvature="0"
         id="path7686"
         d="m 53.645888,498.87151 -5.797698,3.41759 -0.05746,-6.73576 5.855159,3.31817 z"
         style="fill:#d0801c;fill-opacity:1;fill-rule:evenodd;stroke:#d0801c;stroke-width:0.67360001pt;stroke-opacity:1" />
    </g>
  </g>
</svg>
